Coordinates
version=1
nRows=60
nColumns=12
inDegrees=yes

Units are S.I. units (second, meters, Newtons, ...)
Angles are in degrees

endheader
time	SC_y	SC_z	SC_x	AC_y	AC_z	AC_x	GH_y	GH_z	GH_yy	EL_x	PS_y
       0.0              -37.08           33.9          70.94          33.67         -14.39          4.648          75.95        -0.7964          9.844           70.4          147.0
   0.03782              -37.08           33.9          70.94          33.67         -14.39          4.645          75.93        -0.7878           9.82           70.4          146.9
   0.07565              -37.08           33.9          70.93          33.67         -14.39          4.642          75.91        -0.7787          9.793          70.41          146.9
    0.1135              -37.08          33.89          70.93          33.67         -14.39          4.639          75.88         -0.769          9.766          70.42          146.9
    0.1513              -37.08          33.89          70.92          33.68         -14.39          4.635          75.86        -0.7586          9.736          70.42          146.9
    0.1891              -37.08          33.88          70.92          33.68         -14.39          4.631          75.83        -0.7476          9.704          70.43          146.9
    0.2269              -37.08          33.88          70.91          33.68         -14.39          4.628          75.81        -0.7358           9.67          70.44          146.9
    0.2648              -37.08          33.87          70.91          33.69         -14.39          4.623          75.78        -0.7233          9.634          70.45          146.9
    0.3026              -37.08          33.87           70.9          33.69          -14.4          4.619          75.75        -0.7098          9.596          70.46          146.9
    0.3404              -37.07          33.86          70.89          33.69          -14.4          4.614          75.71        -0.6953          9.554          70.47          146.9
    0.3782              -37.07          33.85          70.88           33.7          -14.4          4.609          75.68        -0.6798           9.51          70.48          146.9
    0.4161              -37.07          33.85          70.88           33.7          -14.4          4.603          75.64        -0.6631          9.462          70.49          146.9
    0.4539              -37.07          33.84          70.87           33.7          -14.4          4.597           75.6        -0.6451           9.41           70.5          146.9
    0.4917              -37.07          33.83          70.86          33.71          -14.4          4.591          75.55        -0.6256          9.354          70.52          146.8
    0.5295              -37.07          33.82          70.85          33.71          -14.4          4.584          75.51        -0.6046          9.293          70.53          146.8
    0.5674              -37.07          33.81          70.84          33.72          -14.4          4.576          75.45        -0.5817          9.228          70.55          146.8
    0.6052              -37.07           33.8          70.82          33.73          -14.4          4.568           75.4        -0.5569          9.157          70.57          146.8
     0.643              -37.06          33.79          70.81          33.73          -14.4          4.559          75.34        -0.5299          9.079          70.59          146.8
    0.6808              -37.06          33.78           70.8          33.74          -14.4          4.549          75.27        -0.5003          8.994          70.61          146.8
    0.7187              -37.06          33.77          70.78          33.75         -14.41          4.538          75.19         -0.468          8.901          70.63          146.7
    0.7565              -37.06          33.75          70.76          33.76         -14.41          4.526          75.11        -0.4325          8.799          70.66          146.7
    0.7943              -37.06          33.73          70.74          33.77         -14.41          4.513          75.02        -0.3935          8.687          70.68          146.7
    0.8321              -37.05          33.72          70.72          33.78         -14.41          4.499          74.92        -0.3503          8.563          70.71          146.7
      0.87              -37.05           33.7           70.7          33.79         -14.41          4.483          74.81        -0.3025          8.426          70.75          146.6
    0.9078              -37.05          33.67          70.67           33.8         -14.42          4.465          74.69        -0.2494          8.274          70.79          146.6
    0.9456              -37.04          33.65          70.64          33.81         -14.42          4.445          74.56        -0.1901          8.103          70.83          146.6
    0.9834              -37.04          33.62          70.61          33.83         -14.42          4.423           74.4        -0.1236          7.912          70.87          146.5
     1.021              -37.03          33.59          70.57          33.85         -14.42          4.398          74.23        -0.0489          7.698          70.93          146.5
     1.059              -37.03          33.55          70.53          33.87         -14.43           4.37          74.04        0.03554          7.455          70.99          146.4
     1.097              -37.02          33.51          70.49          33.89         -14.43          4.338          73.82         0.1314           7.18          71.06          146.4
     1.135              -37.02          33.47          70.43          33.92         -14.44          4.301          73.57         0.2408          6.866          71.13          146.3
     1.173              -37.01          33.41          70.37          33.95         -14.44          4.259          73.28         0.3664          6.505          71.22          146.2
      1.21               -37.0          33.35           70.3          33.98         -14.45          4.211          72.95         0.5114          6.089          71.33          146.1
     1.248              -36.99          33.28          70.22          34.02         -14.46          4.154          72.56         0.6799          5.605          71.45          146.0
     1.286              -36.98           33.2          70.12          34.07         -14.46          4.088          72.11          0.877          5.039          71.59          145.9
     1.324              -36.96           33.1          70.01          34.13         -14.47          4.011          71.58          1.109          4.372          71.75          145.7
     1.362              -36.95          32.99          69.87          34.19         -14.49          3.918          70.94          1.386          3.579          71.95          145.6
       1.4              -36.93          32.85          69.71          34.27          -14.5          3.808          70.18          1.717          2.628          72.18          145.4
     1.437               -36.9          32.68          69.51          34.37         -14.52          3.674          69.27          2.117          1.478          72.47          145.1
     1.475              -36.87          32.47          69.27          34.49         -14.54           3.51          68.14          2.606        0.07366          72.81          144.8
     1.513              -36.83          32.22          68.97          34.63         -14.57          3.308          66.76           3.21          -1.66          73.24          144.4
     1.551              -36.79           31.9           68.6          34.82          -14.6          3.057          65.03          3.963         -3.822          73.78          143.9
     1.589              -36.73           31.5          68.14          35.04         -14.64          2.739          62.86          4.911         -6.546          74.45          143.3
     1.626              -36.65          30.99          67.55          35.33         -14.69          2.336           60.1          6.117         -10.01          75.31          142.6
     1.664              -36.56          30.35          66.79          35.71         -14.76           1.82          56.56           7.66         -14.44           76.4          141.6
     1.702              -36.44          29.51          65.82          36.18         -14.85          1.158          52.02          9.641         -20.13          77.81          140.3
      1.74              -36.28          28.45          64.57          36.79         -14.95         0.3126          46.22          12.17         -27.39          79.61          138.7
     1.778              -36.08          27.11          63.01          37.56         -15.09        -0.7509          38.92          15.35         -36.52          81.87          136.7
     1.816              -35.84          25.48          61.11          38.49         -15.26         -2.047          30.03          19.23         -47.65          84.62          134.2
     1.853              -35.57          23.59           58.9          39.58         -15.46         -3.549          19.73          23.72         -60.56          87.81          131.4
     1.891              -35.27          21.54          56.52          40.75         -15.67         -5.175          8.578          28.59         -74.53          91.27          128.3
     1.929              -34.97           19.5          54.13          41.92         -15.88         -6.802         -2.576          33.45          -88.5          94.73          125.2
     1.967              -34.69           17.6          51.92          43.01         -16.08         -8.304         -12.88          37.94         -101.4          97.92          122.4
     2.005              -34.45          15.97          50.02          43.94         -16.24           -9.6         -21.77          41.82         -112.5          100.7          119.9
     2.043              -34.25          14.64          48.46          44.71         -16.38         -10.66         -29.06           45.0         -121.7          102.9          117.9
      2.08               -34.1          13.57          47.21          45.32         -16.49         -11.51         -34.86          47.53         -128.9          104.7          116.3
     2.118              -33.98          12.74          46.24          45.79         -16.58         -12.17          -39.4          49.51         -134.6          106.1          115.0
     2.156              -33.88          12.09          45.48          46.17         -16.64         -12.69         -42.94          51.05         -139.0          107.2          114.0
     2.194              -33.81          11.58          44.89          46.46          -16.7         -13.09          -45.7          52.26         -142.5          108.1          113.3
     2.232              -33.75          11.18          44.43          46.69         -16.74         -13.41         -47.88          53.21         -145.2          108.8          112.7
